<?xml version="1.0" encoding="utf-8"?>
<svg version="1.1" id="Layer_1" xmlns="http://www.w3.org/2000/svg" xmlns:xlink="http://www.w3.org/1999/xlink" x="0px" y="0px"
	 viewBox="0 0 383.2 385.3" style="enable-background:new 0 0 383.2 385.3;" xml:space="preserve">
<style type="text/css">
	.st0{fill:#262626;}
</style>
<g>
	<path class="st0" d="M284.8,180.9c0.1-0.3-0.1-0.6-0.3-0.7c-0.3-0.1-0.6,0-0.8,0.2c-6,9.1-19.4,8.7-19.4-9.2
		c0-22.9,14.4-51.7,14.4-67.4c0-18.7-13.7-27.9-26.1-27.9C240,75.8,237.3,88,229,88c-0.3,0-0.6,0-0.9-0.1c-0.7,0-1.2,0.5-1.3,1.1
		c-0.1,0.6-0.2,1.3-0.2,2.4c0,0.8,0.1,1.7,0.1,1.7c0,0.8-1.4,1.5-2.2,1.7c-0.4,0.1-0.7,0.4-0.7,0.9v0c0,0.4,0.2,1.1,0.2,1.1
		c0,0.3-0.2,0.5-0.5,0.5c0,0,0,0,0,0c-0.4,0-0.8,0.1-0.9,0.1c-0.4,0.1-0.7,0.6-0.7,1c0,0,0.1,0.8,0.1,1.2c0,1.4-0.8,3.3-0.9,3.3l0,0
		c0,0,0,0,0,0c0,0,0,0,0,0c0,0,0,0,0,0c-0.7,1.3-1.2,2.3-1.2,3.3c0,3.3,9.4,9.3,23.2,10.5c0,0.1,0,0.2,0,0.3c0,2.9-7.7,5-11.4,6.2
		c-0.9,0.3-1.9,0.1-2.6-0.6c-9-8.3-25.8-11.7-30.3-18.6c-0.7-1.1-0.8-2.5-0.1-3.7c3.1-5.2,12.6-2.1,14.1-2.1
		c1.6-0.1,2.9-1.2,3.6-5.2c0.2-1.1,2.4-2.3,2.3-3.2c0-0.3-0.2-0.6-0.4-0.7c-0.1,0-0.1-0.1-0.1-0.2c0-0.1,0.1-0.2,0.2-0.2l0.9-0.1
		c0.5-0.1,0.9-0.5,0.9-1c0-1,0.4-2.4,0.6-3.1c0.1-0.4,0.5-0.6,0.9-0.6c0.4,0,1-0.1,1.5-0.3c0.5-0.1,1-0.5,1.2-1
		c0.2-0.5,0.3-1,0.1-1.5c-0.4-1-0.6-2-0.6-3c-0.3-8,7.5-6.2,7.4-9.4c-0.1-1.5-2.7-2.3-3.2-5.6c-1.4-8.2-10.7-21.1-25.1-21.3
		c-36.6-0.5-14.9,48-30.6,48c-4.3,0-64.3-26.3-77.7-89.6c0-0.1-0.1-0.2-0.3-0.2c-0.1,0-0.2,0.1-0.2,0.2
		c8.1,115.2,139.2,110.9,123.9,154.6c0,0.1-0.2,0.2-0.3,0.1c-0.1,0-0.2-0.1-0.2-0.3c5.2-24.3-40.7-31.1-63.5-43.8
		c-0.3-0.1-0.6-0.1-0.8,0.1c-0.2,0.2-0.2,0.6,0,0.8c21.6,30.2,2.5,52.2-29.8,73.4c-0.1,0.1-0.2,0.2-0.1,0.3c0.1,0.1,0.2,0.2,0.3,0.2
		c22.7-5.3,45-3.1,57.1-3.1c7,0,11-1.2,11-6.2c0,0,0,0,0-0.1c0-7.3,1.2-19.8,8.4-29.4c0.1-0.1,0.2-0.1,0.3-0.1s0.1,0.2,0.1,0.3
		c-9.4,26,12,29.9,12,48.5c0,8.5-6.7,16.5-16.5,16.5c-14.7,0-44.9-9.5-69.3-6.9c-0.1,0-0.2,0.1-0.2,0.3c0,0.1,0.1,0.3,0.2,0.3
		c33.7,4.9,93.4,26.6,127.6,51.9c0.6,0.5,1.1,1.1,1.1,1.9c0.1,1.2-0.7,2.3-1.8,2.7c-42.6,13.4-113,52.2-159.9,52.2
		c-32.9,0-60.3-23.7-52.3-48.9c-8.2,6.8-8,55,64.3,55c63.8,0,141.4-39.9,190-39.9c50.7,0,17.2,46.3-41.9,35.6
		c-0.1,0-0.2,0.1-0.3,0.2c0,0.1,0,0.2,0.1,0.3c33,11.1,89.1-7.8,89.1-37.4c0-50-119.5-30-119.5-89.4c0-22.4,21.2-42.2,32.6-59.9
		c0.1-0.1,0.3-0.2,0.4-0.1c0.1,0.1,0.2,0.3,0.1,0.4c-6.2,11.2-16.6,25-16.6,42.2C239.4,202.7,277.4,207.3,284.8,180.9z"/>
	<path class="st0" d="M202.9,263.5c0.1,0.1,0.2,0.1,0.4,0.1c0.1-0.1,0.2-0.2,0.1-0.4c-19.2-33.6-91.8-44.2-98-59.3
		c0-0.1-0.1-0.1-0.2-0.2c-0.1,0-0.2,0-0.2,0.1c-23.3,24.3-46.2,50.2-52,75.8c0,0.2,0,0.4,0,0.6c3.7,11.1,16,23.8,39.2,24.5
		c0.3,0,0.7-0.1,0.9-0.4c0.2-0.2,0.3-0.6,0.3-0.9C83.8,204,183.5,239.9,202.9,263.5z"/>
</g>
</svg>
